{
  "accessors": [
    {
      "bufferView": 2,
      "componentType": 5126,
      "count": 459,
      "max": [
        1.1325244903564453,
        3.157686710357666,
        1.1422516107559204
      ],
      "min": [
        -1.1366355419158936,
        -0.018657565116882324,
        -1.157594084739685
      ],
      "type": "VEC3"
    },
    {
      "bufferView": 2,
      "byteOffset": 5508,
      "componentType": 5126,
      "count": 459,
      "max": [
        1.0,
        1.0,
        1.0
      ],
      "min": [
        -1.0,
        -1.0,
        -1.0
      ],
      "type": "VEC3"
    },
    {
      "bufferView": 1,
      "componentType": 5126,
      "count": 459,
      "max": [
        0.9918910264968872,
        0.9805399775505066
      ],
      "min": [
        0.012412011623382568,
        0.010548535734415054
      ],
      "type": "VEC2"
    },
    {
      "bufferView": 1,
      "byteOffset": 3672,
      "componentType": 5126,
      "count": 459,
      "max": [
        0.9918910264968872,
        0.9805399775505066
      ],
      "min": [
        0.012412011623382568,
        0.010548535734415054
      ],
      "type": "VEC2"
    },
    {
      "bufferView": 1,
      "byteOffset": 7344,
      "componentType": 5126,
      "count": 459,
      "max": [
        0.9918910264968872,
        0.9805399775505066
      ],
      "min": [
        0.012412011623382568,
        0.010548535734415054
      ],
      "type": "VEC2"
    },
    {
      "bufferView": 0,
      "componentType": 5125,
      "count": 1395,
      "type": "SCALAR"
    }
  ],
  "asset": {
    "extras": {
      "author": "PickledCactusAlan (https://sketchfab.com/PickledCactusAlan)",
      "license": "CC-BY-4.0 (http://creativecommons.org/licenses/by/4.0/)",
      "source": "https://sketchfab.com/3d-models/low-poly-takeaway-coffee-cup-9c6836087036459b98a1b978d02c2e00",
      "title": "Low-Poly Takeaway Coffee Cup"
    },
    "generator": "Sketchfab-13.79.0",
    "version": "2.0"
  },
  "bufferViews": [
    {
      "buffer": 0,
      "byteLength": 5580,
      "name": "floatBufferViews",
      "target": 34963
    },
    {
      "buffer": 0,
      "byteLength": 11016,
      "byteOffset": 5580,
      "byteStride": 8,
      "name": "floatBufferViews",
      "target": 34962
    },
    {
      "buffer": 0,
      "byteLength": 11016,
      "byteOffset": 16596,
      "byteStride": 12,
      "name": "floatBufferViews",
      "target": 34962
    }
  ],
  "buffers": [
    {
      "byteLength": 27612,
      "uri": "scene.bin"
    }
  ],
  "extensionsRequired": [
    "KHR_materials_pbrSpecularGlossiness"
  ],
  "extensionsUsed": [
    "KHR_materials_pbrSpecularGlossiness"
  ],
  "images": [
    {
      "uri": "textures/M_TakewayCup_diffuse.png"
    },
    {
      "uri": "textures/M_TakewayCup_specularGlossiness.png"
    }
  ],
  "materials": [
    {
      "extensions": {
        "KHR_materials_pbrSpecularGlossiness": {
          "diffuseFactor": [
            1.0,
            1.0,
            1.0,
            1.0
          ],
          "diffuseTexture": {
            "index": 0
          },
          "glossinessFactor": 0.079,
          "specularFactor": [
            1.0,
            1.0,
            1.0
          ],
          "specularGlossinessTexture": {
            "index": 1
          }
        }
      },
      "name": "M_TakewayCup"
    }
  ],
  "meshes": [
    {
      "name": "SM_TakeawayCup_M_TakewayCup_0",
      "primitives": [
        {
          "attributes": {
            "NORMAL": 1,
            "POSITION": 0,
            "TEXCOORD_0": 2,
            "TEXCOORD_1": 3,
            "TEXCOORD_2": 4
          },
          "indices": 5,
          "material": 0,
          "mode": 4
        }
      ]
    }
  ],
  "nodes": [
    {
      "children": [
        1
      ],
      "matrix": [
        1.0,
        0.0,
        0.0,
        0.0,
        0.0,
        -0.02615975588560082,
        -0.9996577501296997,
        0.0,
        0.0,
        0.9996577501296997,
        -0.02615975588560082,
        0.0,
        0.0,
        0.0,
        0.0,
        1.0
      ],
      "name": "Sketchfab_model"
    },
    {
      "children": [
        2
      ],
      "matrix": [
        0.009999999776482582,
        0.0,
        0.0,
        0.0,
        0.0,
        0.0,
        0.009999999776482582,
        0.0,
        0.0,
        -0.009999999776482582,
        0.0,
        0.0,
        0.0,
        0.0,
        0.0,
        1.0
      ],
      "name": "4cb19386fffe4effa06f7bacdff0c226.fbx"
    },
    {
      "children": [
        3
      ],
      "name": "RootNode"
    },
    {
      "children": [
        4
      ],
      "name": "SM_TakeawayCup"
    },
    {
      "mesh": 0,
      "name": "SM_TakeawayCup_M_TakewayCup_0"
    }
  ],
  "samplers": [
    {
      "magFilter": 9729,
      "minFilter": 9987,
      "wrapS": 10497,
      "wrapT": 10497
    }
  ],
  "scene": 0,
  "scenes": [
    {
      "name": "Sketchfab_Scene",
      "nodes": [
        0
      ]
    }
  ],
  "textures": [
    {
      "sampler": 0,
      "source": 0
    },
    {
      "sampler": 0,
      "source": 1
    }
  ]
}
