{"asset":{"generator":"glTF-Transform v3.5.1","version":"2.0","extras":{"author":"Broccoletto (https://sketchfab.com/broccoletto)","license":"CC-BY-4.0 (http://creativecommons.org/licenses/by/4.0/)","source":"https://sketchfab.com/3d-models/coffee-cup-b00505c3fc5b488da2ec1aa7bcfc2bc0","title":"Coffee cup"}},"accessors":[{"type":"VEC3","componentType":5126,"count":31205,"max":[1.159999966621399,1.4867199659347534,2.6185100078582764],"min":[-5.968249797821045,-2.7150299549102783,-2.6185100078582764],"bufferView":0,"byteOffset":0},{"type":"VEC3","componentType":5126,"count":31205,"bufferView":0,"byteOffset":12},{"type":"VEC2","componentType":5126,"count":31205,"bufferView":0,"byteOffset":24},{"type":"VEC3","componentType":5126,"count":37634,"max":[1.6358400583267212,1.6358400583267212,0.5531299710273743],"min":[-1.6358400583267212,-1.6358400583267212,0.001500000013038516],"bufferView":1,"byteOffset":0},{"type":"VEC3","componentType":5126,"count":37634,"bufferView":1,"byteOffset":12},{"type":"VEC2","componentType":5126,"count":37634,"bufferView":1,"byteOffset":24},{"type":"VEC3","componentType":5126,"count":32,"max":[1,1,0],"min":[-1,-1,0],"bufferView":2,"byteOffset":0},{"type":"VEC3","componentType":5126,"count":32,"bufferView":2,"byteOffset":12},{"type":"VEC4","componentType":5126,"count":32,"bufferView":2,"byteOffset":24},{"type":"VEC2","componentType":5126,"count":32,"bufferView":2,"byteOffset":40},{"type":"VEC3","componentType":5126,"count":4866,"max":[1.1463600397109985,1.004140019416809,0.06605000048875809],"min":[0.7362800240516663,-0.9998499751091003,-0.08371999859809875],"bufferView":3,"byteOffset":0},{"type":"VEC3","componentType":5126,"count":4866,"bufferView":3,"byteOffset":12},{"type":"SCALAR","componentType":5125,"count":78336,"bufferView":4,"byteOffset":0},{"type":"SCALAR","componentType":5125,"count":224256,"bufferView":4,"byteOffset":313344},{"type":"SCALAR","componentType":5125,"count":90,"bufferView":4,"byteOffset":1210368},{"type":"SCALAR","componentType":5125,"count":29184,"bufferView":4,"byteOffset":1210728}],"bufferViews":[{"buffer":0,"byteOffset":0,"byteLength":998560,"byteStride":32,"target":34962},{"buffer":0,"byteOffset":998560,"byteLength":1204288,"byteStride":32,"target":34962},{"buffer":0,"byteOffset":2202848,"byteLength":1536,"byteStride":48,"target":34962},{"buffer":0,"byteOffset":2204384,"byteLength":116784,"byteStride":24,"target":34962},{"buffer":0,"byteOffset":2321168,"byteLength":1327464,"target":34963}],"samplers":[{"magFilter":9729,"minFilter":9987,"wrapS":10497,"wrapT":10497}],"textures":[{"source":0,"sampler":0},{"source":1,"sampler":0},{"source":5,"sampler":0},{"source":2,"sampler":0},{"source":3,"sampler":0},{"source":4,"sampler":0}],"images":[{"mimeType":"image/png","uri":"textures/coffee_diffuse.png"},{"mimeType":"image/png","uri":"textures/coffee_normal.png"},{"mimeType":"image/png","uri":"textures/plate_diffuse.png"},{"mimeType":"image/png","uri":"textures/coffee-mug_diffuse.png"},{"mimeType":"image/png","uri":"specular_1.png"},{"mimeType":"image/png","uri":"metallicRoughness_1.png"}],"buffers":[{"uri":"scene.bin","byteLength":3648632}],"materials":[{"name":"spoon","doubleSided":true,"pbrMetallicRoughness":{"baseColorFactor":[0.2422811225,0.2422811225,0.2422811225,1],"roughnessFactor":0,"metallicFactor":0},"extensions":{"KHR_materials_ior":{"ior":1000},"KHR_materials_specular":{"specularColorFactor":[0.8000000119,0.8000000119,0.8000000119]}}},{"name":"coffee","doubleSided":true,"pbrMetallicRoughness":{"metallicFactor":0,"baseColorTexture":{"index":0},"metallicRoughnessTexture":{"index":2}},"normalTexture":{"index":1,"scale":0.7090320122},"extensions":{"KHR_materials_ior":{"ior":1000},"KHR_materials_specular":{"specularColorFactor":[0.2943978659,0.2943978659,0.2943978659],"specularTexture":{"index":5},"specularColorTexture":{"index":5}}}},{"name":"plate","doubleSided":true,"pbrMetallicRoughness":{"roughnessFactor":0.19999999999999996,"metallicFactor":0,"baseColorTexture":{"index":3}},"extensions":{"KHR_materials_ior":{"ior":1000},"KHR_materials_specular":{"specularColorFactor":[0.16000000238,0.16000000238,0.16000000238]}}},{"name":"coffee-mug","doubleSided":true,"pbrMetallicRoughness":{"roughnessFactor":0.19999999999999996,"metallicFactor":0,"baseColorTexture":{"index":4}},"extensions":{"KHR_materials_ior":{"ior":1000},"KHR_materials_specular":{"specularColorFactor":[0.16000000238,0.16000000238,0.16000000238]}}}],"meshes":[{"name":"coffee-mug_0","primitives":[{"attributes":{"NORMAL":1,"POSITION":0,"TEXCOORD_0":2},"mode":4,"material":3,"indices":12}]},{"name":"plate_0","primitives":[{"attributes":{"NORMAL":4,"POSITION":3,"TEXCOORD_0":5},"mode":4,"material":2,"indices":13}]},{"name":"coffee_0","primitives":[{"attributes":{"NORMAL":7,"POSITION":6,"TANGENT":8,"TEXCOORD_0":9},"mode":4,"material":1,"indices":14}]},{"name":"Plane_0","primitives":[{"attributes":{"NORMAL":11,"POSITION":10},"mode":4,"material":0,"indices":15}]}],"nodes":[{"name":"Sketchfab_model","rotation":[-0.7071067811865475,0,0,0.7071067811865476],"scale":[0.026195192709565163,0.026195192709565163,0.026195192709565163],"children":[1]},{"name":"Root","children":[2,4,6,8,10]},{"name":"Lamp","translation":[4.076250000000001,1.00545,8.41719],"rotation":[0.16907447008309556,0.2721706359913094,0.7558797583695019,0.5709491121494871],"children":[3]},{"name":"Lamp"},{"name":"coffee-mug","translation":[2.8113999999999995,0,3.7757300000000003],"rotation":[0.7075952654172568,0,0,0.7066179592672988],"scale":[0.8392900000000001,0.8392908016295664,0.8392908016295664],"children":[5]},{"name":"coffee-mug_0","mesh":0},{"name":"plate","translation":[0,0,0.020440000000000003],"scale":[2.7720599999999997,2.7720599999999997,2.7720599999999997],"children":[7]},{"name":"plate_0","mesh":1},{"name":"coffee","translation":[0,0,3.9144799999999997],"scale":[1.7892400000000002,1.7892400000000002,1.7892400000000002],"children":[9]},{"name":"coffee_0","mesh":2},{"name":"Plane","translation":[-3.9071300000000004,-4.31536,1.5495199999999998],"rotation":[0.00256061044921632,-0.0011501489729550769,0.4097434914750931,0.9121964655198431],"scale":[4.253395311489399,4.253398233836094,4.253397035699818],"children":[11]},{"name":"Plane_0","mesh":3}],"scenes":[{"name":"Sketchfab_Scene","nodes":[0]}],"scene":0,"extensionsUsed":["KHR_materials_ior","KHR_materials_specular"]}